<mxfile host="app.diagrams.net" modified="2024-05-12T10:05:34.368Z" agent="Mozilla/5.0 (Windows NT 10.0; Win64; x64) AppleWebKit/537.36 (KHTML, like Gecko) Chrome/124.0.0.0 Safari/537.36" version="24.4.0" etag="z31Vy0jxef5mS-z-Tmaq" type="github">
  <diagram name="Page-1" id="1xmIKHfGIRI0AgsF4vlK">
    <mxGraphModel>
      <root>
        <mxCell id="0" />
        <mxCell id="1" parent="0" />
      </root>
    </mxGraphModel>
  </diagram>
</mxfile>
